# xmcd CD database file
#
# Track frame offsets:
#	150
#	19210
#	35244
#	54399
#	80398
#	98110
#	113457
#	131827
#	147640
#	164456
#
# Disc length: 2353 seconds
#
# Revision: 0
# Processed by: cddbd v1.5.1PL2 Copyright (c) Steve Scherf et al.
# Submitted via: CDex 1.51
#
DISCID=88092f0a
DTITLE=Julie Cimon - Jazz and Brésilien
DYEAR=2003
DGENRE=Jazz
TTITLE0=If You Can't Sing It, You'll Have To Swing It
TTITLE1=I Can't Give You Anything But Love
TTITLE2=O Chinês e a Bicicleta
TTITLE3=Someone To Watch Over Me
TTITLE4=Sexy Silvia
TTITLE5=Isso Aqui o Que É
TTITLE6=Let's Fall In Love
TTITLE7=Aguas de Março/Les Eaux de Mars
TTITLE8=Undecided
TTITLE9=O Cantador
EXTD=YEAR: 2003
EXTT0=
EXTT1=
EXTT2=
EXTT3=
EXTT4=
EXTT5=
EXTT6=
EXTT7=
EXTT8=
EXTT9=
PLAYORDER=
